<?xml version="1.0" encoding="UTF-8" standalone="no"?>
<!-- Created with Inkscape (http://www.inkscape.org/) -->

<svg
   width="180"
   height="180"
   viewBox="0 0 180 180"
   version="1.1"
   id="svg5"
   sodipodi:docname="ofd_logo.svg"
   inkscape:version="1.2.2 (b0a8486541, 2022-12-01)"
   xmlns:inkscape="http://www.inkscape.org/namespaces/inkscape"
   xmlns:sodipodi="http://sodipodi.sourceforge.net/DTD/sodipodi-0.dtd"
   xmlns="http://www.w3.org/2000/svg"
   xmlns:svg="http://www.w3.org/2000/svg">
  <sodipodi:namedview
     id="namedview2855"
     pagecolor="#ffffff"
     bordercolor="#000000"
     borderopacity="0.25"
     inkscape:showpageshadow="2"
     inkscape:pageopacity="0.0"
     inkscape:pagecheckerboard="0"
     inkscape:deskcolor="#d1d1d1"
     showgrid="false"
     inkscape:zoom="2.8527778"
     inkscape:cx="101.1295"
     inkscape:cy="103.23272"
     inkscape:window-width="1276"
     inkscape:window-height="1400"
     inkscape:window-x="1280"
     inkscape:window-y="1440"
     inkscape:window-maximized="1"
     inkscape:current-layer="svg5" />
  <defs
     id="defs2" />
  <circle
     style="fill:#ffffff;stroke-width:7.51042"
     id="path256"
     cx="90"
     cy="90"
     r="84.458061" />
  <g
     id="layer1"
     transform="translate(0.41797,0.485353)">
    <path
       id="path111"
       style="fill:#000000"
       d="M 89.611328,11.402344 A 78.112389,78.112389 0 0 0 11.5,89.513672 78.112389,78.112389 0 0 0 89.611328,167.62695 78.112389,78.112389 0 0 0 167.66406,91.958984 23.535282,23.535282 0 0 1 165.50391,92.171875 23.535282,23.535282 0 0 1 154.6582,89.355469 c 1.3e-4,0.05302 0.004,0.105156 0.004,0.158203 0,35.878598 -29.17218,65.050778 -65.050782,65.050778 -35.878607,0 -65.048828,-29.17218 -65.048828,-65.050778 0,-35.878607 29.170221,-65.048828 65.048828,-65.048828 1.750496,0 3.479355,0.08834 5.195313,0.224609 a 23.535282,23.535282 0 0 1 -0.603516,-4.951172 23.535282,23.535282 0 0 1 1.457031,-7.904297 78.112389,78.112389 0 0 0 -6.048828,-0.43164 z m 0,21.0625 c -31.555098,0 -57.048828,25.493728 -57.048828,57.048828 0,31.555098 25.49373,57.050778 57.048828,57.050778 31.555102,0 57.050782,-25.49568 57.050782,-57.050778 0,-0.885847 -0.0267,-1.764762 -0.0664,-2.640625 a 23.535282,23.535282 0 0 1 -10.96289,2.886719 23.535282,23.535282 0 0 1 -17.4414,-7.904297 H 64.287109 v -3.46875 h 51.332031 a 23.535282,23.535282 0 0 1 -2.625,-5.794922 23.535282,23.535282 0 0 1 -14.447265,-9.523438 H 64.287109 V 59.601562 H 96.5625 a 23.535282,23.535282 0 0 1 -2.355469,-10 23.535282,23.535282 0 0 1 5.386719,-14.929687 23.535282,23.535282 0 0 1 -1.042969,-1.507813 c -2.912446,-0.456598 -5.896917,-0.699218 -8.939453,-0.699218 z m -34.089844,25.71875 a 3.1514518,3.1514518 0 0 1 3.152344,3.152344 3.1514518,3.1514518 0 0 1 -3.152344,3.15039 3.1514518,3.1514518 0 0 1 -3.15039,-3.15039 3.1514518,3.1514518 0 0 1 3.15039,-3.152344 z m 0,18.785156 a 3.1514518,3.1514518 0 0 1 3.152344,3.152344 3.1514518,3.1514518 0 0 1 -3.152344,3.152344 3.1514518,3.1514518 0 0 1 -3.15039,-3.152344 3.1514518,3.1514518 0 0 1 3.15039,-3.152344 z m 0,18.787109 a 3.1514518,3.1514518 0 0 1 3.152344,3.150391 3.1514518,3.1514518 0 0 1 -3.152344,3.15234 3.1514518,3.1514518 0 0 1 -3.15039,-3.15234 3.1514518,3.1514518 0 0 1 3.15039,-3.150391 z m 8.765625,1.417969 h 62.847661 v 3.466792 H 64.287109 Z m -8.765625,17.367192 a 3.1514518,3.1514518 0 0 1 3.152344,3.15039 3.1514518,3.1514518 0 0 1 -3.152344,3.15234 3.1514518,3.1514518 0 0 1 -3.15039,-3.15234 3.1514518,3.1514518 0 0 1 3.15039,-3.15039 z m 8.765625,1.41796 h 62.847661 v 3.4668 H 64.287109 Z" />
  </g>
</svg>
